<svg id="Calque_1" data-name="Calque 1" xmlns="http://www.w3.org/2000/svg" viewBox="0 0 3000 3000"><defs><style>.cls-1,.cls-3{fill:#20386d;}.cls-11,.cls-2,.cls-8{fill:#3c3c3b;}.cls-10,.cls-12,.cls-2,.cls-3,.cls-4,.cls-9{stroke:#1d1d1b;}.cls-10,.cls-12,.cls-13,.cls-14,.cls-15,.cls-2,.cls-3,.cls-4,.cls-6,.cls-7,.cls-8,.cls-9{stroke-miterlimit:10;}.cls-4{fill:#211f1d;}.cls-10,.cls-5,.cls-6{fill:#1d1d1b;}.cls-6,.cls-7,.cls-8{stroke:#9d9d9c;}.cls-14,.cls-15,.cls-7{fill:none;}.cls-9{fill:#ccc;}.cls-12,.cls-9{opacity:0.3;}.cls-11{opacity:0.18;}.cls-12{fill:#dadada;}.cls-13{fill:#f2b71b;stroke:#bb8813;}.cls-14{stroke:#706f6f;opacity:0.81;}.cls-15{stroke:#fff;}</style></defs><title>logoesms</title><path class="cls-1" d="M1930.87,1461.73l-201-115a16.31,16.31,0,0,1-.11-28.25l200.1-116.58a16.31,16.31,0,0,1,24.52,14l.91,231.58A16.31,16.31,0,0,1,1930.87,1461.73Z"/><rect class="cls-1" x="1290.33" y="1084.45" width="554.69" height="496.93" rx="162.18"/><path class="cls-2" d="M1377,1122.89l210.38,70A18.38,18.38,0,0,1,1600,1210.3v252.08a18.39,18.39,0,0,1-13,17.58l-210.38,64.31a18.38,18.38,0,0,1-23.75-17.58V1140.33A18.38,18.38,0,0,1,1377,1122.89Z"/><path class="cls-3" d="M1387,1144l189.34,63a16.54,16.54,0,0,1,11.32,15.7v226.87a16.53,16.53,0,0,1-11.71,15.82l-189.34,57.88a16.54,16.54,0,0,1-21.37-15.82V1159.65A16.54,16.54,0,0,1,1387,1144Z"/><circle class="cls-4" cx="1322.1" cy="1333.19" r="218.47"/><circle class="cls-5" cx="1321.78" cy="1333.38" r="203.33"/><circle class="cls-6" cx="1326.42" cy="1177.27" r="26.4"/><circle class="cls-7" cx="1326.42" cy="1177.27" r="19.08"/><circle class="cls-6" cx="1247.11" cy="1198.52" r="26.4"/><circle class="cls-7" cx="1247.11" cy="1198.52" r="19.08"/><circle class="cls-6" cx="1189.05" cy="1256.58" r="26.4"/><circle class="cls-7" cx="1189.05" cy="1256.58" r="19.08"/><circle class="cls-6" cx="1167.8" cy="1335.89" r="26.4"/><circle class="cls-7" cx="1167.8" cy="1335.89" r="19.08"/><circle class="cls-6" cx="1189.05" cy="1415.2" r="26.4"/><circle class="cls-7" cx="1189.05" cy="1415.2" r="19.08"/><circle class="cls-6" cx="1247.11" cy="1473.26" r="26.4"/><circle class="cls-7" cx="1247.11" cy="1473.26" r="19.08"/><circle class="cls-6" cx="1326.42" cy="1494.51" r="26.4"/><circle class="cls-7" cx="1326.42" cy="1494.51" r="19.08"/><circle class="cls-6" cx="1405.74" cy="1473.26" r="26.4"/><circle class="cls-7" cx="1405.74" cy="1473.26" r="19.08"/><circle class="cls-6" cx="1463.8" cy="1415.2" r="26.4"/><circle class="cls-7" cx="1463.8" cy="1414.52" r="19.94"/><circle class="cls-6" cx="1484.56" cy="1334.05" r="30.68"/><circle class="cls-8" cx="1484.56" cy="1334.05" r="25.94"/><circle class="cls-7" cx="1484.56" cy="1334.05" r="22.16"/><circle class="cls-6" cx="1463.8" cy="1256.58" r="26.4"/><circle class="cls-7" cx="1463.8" cy="1256.58" r="19.08"/><circle class="cls-6" cx="1405.74" cy="1198.52" r="26.4"/><circle class="cls-7" cx="1405.74" cy="1198.52" r="19.08"/><circle class="cls-4" cx="1576.58" cy="1336.51" r="139.47"/><path class="cls-9" d="M1633.34,1296.24a40.26,40.26,0,0,0,66.64,30.42,122.67,122.67,0,0,0-29.46-70.57A40.28,40.28,0,0,0,1633.34,1296.24Z"/><path class="cls-10" d="M1632.8,1296.23a40.28,40.28,0,0,1,37.18-40.15,123.25,123.25,0,1,0,29.85,80.42c0-3.31-.13-6.6-.39-9.85a40.26,40.26,0,0,1-66.64-30.42Z"/><path class="cls-11" d="M1587.69,1459.31c-118.81-122.13-8.58-237.15-.13-245.62-3.44-.28-6.92-.43-10.44-.43A123.27,123.27,0,0,0,1518,1444.68a156.08,156.08,0,0,0,60.77,15.06C1581.77,1459.7,1584.75,1459.56,1587.69,1459.31Z"/><circle class="cls-12" cx="1633.34" cy="1369.49" r="12.97"/><path class="cls-13" d="M1323.64,1183.12l-50.11,183.66a2.08,2.08,0,0,0,2.76,2.49l43.53-16.91a2.09,2.09,0,0,1,2.84,1.91l2.11,136.25a2.08,2.08,0,0,0,4.1.48l50.05-196.68a2.09,2.09,0,0,0-2.84-2.43l-42.81,18.31a2.08,2.08,0,0,1-2.89-1.87l-2.65-124.71A2.08,2.08,0,0,0,1323.64,1183.12Z"/><circle class="cls-14" cx="1646.32" cy="1376.24" r="6.75"/><path class="cls-15" d="M1546.11,1194l7.23,2.4"/><path class="cls-15" d="M1533.61,1189.75l5.35,1.83"/><path class="cls-15" d="M1520.43,1185.3l6,2"/><path class="cls-15" d="M1508.31,1181.26l4.64,1.54"/><path class="cls-15" d="M1495.81,1177.14l5,1.65"/><path class="cls-15" d="M1484,1173.28l4.65,1.52"/><path class="cls-15" d="M1469,1168.39l7.5,2.44"/><path class="cls-15" d="M1571.23,1191l7.22,2.4"/><path class="cls-15" d="M1558.72,1186.82l5.36,1.83"/><path class="cls-15" d="M1545.54,1182.37l6,2"/><path class="cls-15" d="M1533.43,1178.33l4.64,1.54"/><path class="cls-15" d="M1520.93,1174.21l5,1.65"/><path class="cls-15" d="M1509.13,1170.35l4.65,1.52"/><path class="cls-15" d="M1494.12,1165.46l7.51,2.45"/><path class="cls-15" d="M1482,1161.37l7.22,2.39"/><path class="cls-15" d="M1469.51,1157.16l5.36,1.84"/><path class="cls-15" d="M1456.33,1152.71l6.05,2"/><path class="cls-15" d="M1444.22,1148.68l4.64,1.54"/><path class="cls-15" d="M1432.43,1144.79l4.29,1.41"/><path class="cls-15" d="M1544.23,1477.74l7.27-2.24"/><path class="cls-15" d="M1531.63,1481.66l5.4-1.71"/><path class="cls-15" d="M1518.36,1485.82l6.09-1.9"/><path class="cls-15" d="M1506.16,1489.58l4.67-1.43"/><path class="cls-15" d="M1493.57,1493.43l5-1.54"/><path class="cls-15" d="M1481.7,1497l4.67-1.41"/><path class="cls-15" d="M1466.58,1501.58l7.56-2.28"/><path class="cls-15" d="M1569.27,1481.22l7.28-2.23"/><path class="cls-15" d="M1556.68,1485.14l5.39-1.71"/><path class="cls-15" d="M1543.4,1489.3l6.09-1.9"/><path class="cls-15" d="M1531.2,1493.07l4.67-1.44"/><path class="cls-15" d="M1518.61,1496.91l5-1.53"/><path class="cls-15" d="M1506.74,1500.51l4.68-1.42"/><path class="cls-15" d="M1491.62,1505.07l7.56-2.28"/><path class="cls-15" d="M1479.43,1508.89l7.27-2.23"/><path class="cls-15" d="M1466.83,1512.82l5.4-1.72"/><path class="cls-15" d="M1453.56,1517l6.09-1.89"/><path class="cls-15" d="M1441.36,1520.74l4.67-1.44"/><path class="cls-15" d="M1429.49,1524.36l4.32-1.31"/></svg>