<svg id="Calque_1" data-name="Calque 1" xmlns="http://www.w3.org/2000/svg" viewBox="0 0 2125.89 1240.15"><defs><style>.cls-1,.cls-3{fill:#20386d;}.cls-11,.cls-2,.cls-8{fill:#3c3c3b;}.cls-10,.cls-12,.cls-2,.cls-3,.cls-4,.cls-9{stroke:#1d1d1b;}.cls-10,.cls-12,.cls-13,.cls-14,.cls-15,.cls-2,.cls-3,.cls-4,.cls-6,.cls-7,.cls-8,.cls-9{stroke-miterlimit:10;}.cls-4{fill:#211f1d;}.cls-10,.cls-5,.cls-6{fill:#1d1d1b;}.cls-6,.cls-7,.cls-8{stroke:#9d9d9c;}.cls-14,.cls-15,.cls-7{fill:none;}.cls-9{fill:#ccc;}.cls-12,.cls-9{opacity:0.3;}.cls-11{opacity:0.18;}.cls-12{fill:#dadada;}.cls-13{fill:#f2b71b;stroke:#bb8813;}.cls-14{stroke:#706f6f;opacity:0.81;}.cls-15{stroke:#fff;}</style></defs><title>logoesms</title><path class="cls-1" d="M2531.23,1654.4l-501.65-287c-27.2-15.56-27.35-54.73-.28-70.51L2528.68,1006c27.08-15.78,61.08,3.67,61.2,35l2.27,577.94C2592.27,1650.24,2558.43,1670,2531.23,1654.4Z" transform="translate(-466.26 -712.84)"/><rect class="cls-1" x="466.43" width="1384.31" height="1240.15" rx="162.18"/><path class="cls-2" d="M1149,808.76l525,174.62a45.87,45.87,0,0,1,31.39,43.52V1656a45.86,45.86,0,0,1-32.46,43.86l-525,160.5a45.87,45.87,0,0,1-59.28-43.86V852.29A45.87,45.87,0,0,1,1149,808.76Z" transform="translate(-466.26 -712.84)"/><path class="cls-3" d="M1173.81,861.33l472.52,157.15a41.27,41.27,0,0,1,28.25,39.17v566.2a41.26,41.26,0,0,1-29.21,39.47l-472.52,144.45a41.28,41.28,0,0,1-53.35-39.47V900.5A41.28,41.28,0,0,1,1173.81,861.33Z" transform="translate(-466.26 -712.84)"/><circle class="cls-4" cx="545.71" cy="620.75" r="545.21"/><circle class="cls-5" cx="544.91" cy="621.24" r="507.43"/><circle class="cls-6" cx="556.51" cy="231.64" r="65.9"/><circle class="cls-7" cx="556.51" cy="231.64" r="47.61"/><circle class="cls-6" cx="358.57" cy="284.67" r="65.9"/><circle class="cls-7" cx="358.57" cy="284.67" r="47.61"/><circle class="cls-6" cx="213.68" cy="429.57" r="65.9"/><circle class="cls-7" cx="213.68" cy="429.57" r="47.61"/><circle class="cls-6" cx="160.64" cy="627.5" r="65.9"/><circle class="cls-7" cx="160.64" cy="627.5" r="47.61"/><circle class="cls-6" cx="213.68" cy="825.43" r="65.9"/><circle class="cls-7" cx="213.68" cy="825.43" r="47.61"/><circle class="cls-6" cx="358.57" cy="970.32" r="65.9"/><circle class="cls-7" cx="358.57" cy="970.32" r="47.61"/><circle class="cls-6" cx="556.5" cy="1023.36" r="65.9"/><circle class="cls-7" cx="556.5" cy="1023.36" r="47.61"/><circle class="cls-6" cx="754.44" cy="970.32" r="65.9"/><circle class="cls-7" cx="754.44" cy="970.32" r="47.61"/><circle class="cls-6" cx="899.33" cy="825.43" r="65.9"/><circle class="cls-7" cx="899.33" cy="823.72" r="49.76"/><circle class="cls-6" cx="951.16" cy="622.9" r="76.56"/><circle class="cls-8" cx="951.16" cy="622.9" r="64.73"/><circle class="cls-7" cx="951.16" cy="622.9" r="55.31"/><circle class="cls-6" cx="899.33" cy="429.57" r="65.9"/><circle class="cls-7" cx="899.33" cy="429.57" r="47.61"/><circle class="cls-6" cx="754.44" cy="284.67" r="65.9"/><circle class="cls-7" cx="754.44" cy="284.67" r="47.61"/><circle class="cls-4" cx="1180.8" cy="629.04" r="348.06"/><path class="cls-9" d="M1788.72,1241.38A100.47,100.47,0,0,0,1955,1317.31a306.33,306.33,0,0,0-73.52-176.11A100.48,100.48,0,0,0,1788.72,1241.38Z" transform="translate(-466.26 -712.84)"/><path class="cls-10" d="M1787.37,1241.35a100.48,100.48,0,0,1,92.79-100.18,306.88,306.88,0,0,0-233.1-106.9c-169.88,0-307.59,137.71-307.59,307.59s137.71,307.59,307.59,307.59,307.59-137.71,307.59-307.59q0-12.4-1-24.57a100.48,100.48,0,0,1-166.31-75.94Z" transform="translate(-466.26 -712.84)"/><path class="cls-11" d="M1674.79,1648.34c-296.51-304.78-21.41-591.82-.33-613q-12.89-1.08-26-1.09c-169.88,0-307.59,137.72-307.59,307.6,0,116.41,64.67,217.7,160,269.94,61.9,29.86,120.51,36.44,151.66,37.59Q1663.77,1649.29,1674.79,1648.34Z" transform="translate(-466.26 -712.84)"/><circle class="cls-12" cx="1322.45" cy="711.34" r="32.38"/><path class="cls-13" d="M1015.82,959.08,890.76,1417.42a5.19,5.19,0,0,0,6.88,6.21l108.65-42.19a5.19,5.19,0,0,1,7.07,4.75l5.29,340c.09,6.06,8.72,7.07,10.22,1.2l124.9-490.83a5.2,5.2,0,0,0-7.08-6.06l-106.83,45.67a5.19,5.19,0,0,1-7.23-4.66L1026,960.34C1025.89,954.35,1017.4,953.3,1015.82,959.08Z" transform="translate(-466.26 -712.84)"/><circle class="cls-14" cx="1354.83" cy="728.19" r="16.85"/><path class="cls-15" d="M1571,986.11l18,6" transform="translate(-466.26 -712.84)"/><path class="cls-15" d="M1539.81,975.62l13.37,4.57" transform="translate(-466.26 -712.84)"/><path class="cls-15" d="M1506.93,964.51l15.09,5.08" transform="translate(-466.26 -712.84)"/><path class="cls-15" d="M1476.69,954.44l11.58,3.84" transform="translate(-466.26 -712.84)"/><path class="cls-15" d="M1445.5,944.16l12.48,4.1" transform="translate(-466.26 -712.84)"/><path class="cls-15" d="M1416.07,934.53l11.59,3.79" transform="translate(-466.26 -712.84)"/><path class="cls-15" d="M1378.59,922.32l18.74,6.1" transform="translate(-466.26 -712.84)"/><path class="cls-15" d="M1633.7,978.8l18,6" transform="translate(-466.26 -712.84)"/><path class="cls-15" d="M1602.49,968.31l13.37,4.58" transform="translate(-466.26 -712.84)"/><path class="cls-15" d="M1569.6,957.21q7.55,2.52,15.09,5.07" transform="translate(-466.26 -712.84)"/><path class="cls-15" d="M1539.36,947.13l11.58,3.85" transform="translate(-466.26 -712.84)"/><path class="cls-15" d="M1508.17,936.85l12.48,4.1" transform="translate(-466.26 -712.84)"/><path class="cls-15" d="M1478.74,927.22l11.6,3.79" transform="translate(-466.26 -712.84)"/><path class="cls-15" d="M1441.27,915l18.74,6.1" transform="translate(-466.26 -712.84)"/><path class="cls-15" d="M1411.07,904.79l18,6" transform="translate(-466.26 -712.84)"/><path class="cls-15" d="M1379.86,894.3l13.37,4.57" transform="translate(-466.26 -712.84)"/><path class="cls-15" d="M1347,883.19l15.09,5.08" transform="translate(-466.26 -712.84)"/><path class="cls-15" d="M1316.74,873.12l11.57,3.84" transform="translate(-466.26 -712.84)"/><path class="cls-15" d="M1287.33,863.43l10.69,3.51" transform="translate(-466.26 -712.84)"/><path class="cls-15" d="M1566.32,1694.33l18.16-5.58" transform="translate(-466.26 -712.84)"/><path class="cls-15" d="M1534.89,1704.12l13.46-4.27" transform="translate(-466.26 -712.84)"/><path class="cls-15" d="M1501.76,1714.5l15.2-4.74" transform="translate(-466.26 -712.84)"/><path class="cls-15" d="M1471.31,1723.9l11.66-3.59" transform="translate(-466.26 -712.84)"/><path class="cls-15" d="M1439.9,1733.49l12.57-3.83" transform="translate(-466.26 -712.84)"/><path class="cls-15" d="M1410.26,1742.46l11.68-3.53" transform="translate(-466.26 -712.84)"/><path class="cls-15" d="M1372.53,1753.84l18.87-5.69" transform="translate(-466.26 -712.84)"/><path class="cls-15" d="M1628.82,1703l18.16-5.57" transform="translate(-466.26 -712.84)"/><path class="cls-15" d="M1597.38,1712.82l13.47-4.28" transform="translate(-466.26 -712.84)"/><path class="cls-15" d="M1564.26,1723.19q7.6-2.36,15.2-4.74" transform="translate(-466.26 -712.84)"/><path class="cls-15" d="M1533.81,1732.59l11.66-3.58" transform="translate(-466.26 -712.84)"/><path class="cls-15" d="M1502.4,1742.18l12.56-3.82" transform="translate(-466.26 -712.84)"/><path class="cls-15" d="M1472.76,1751.16l11.68-3.53" transform="translate(-466.26 -712.84)"/><path class="cls-15" d="M1435,1762.53l18.87-5.68" transform="translate(-466.26 -712.84)"/><path class="cls-15" d="M1404.61,1772.08l18.15-5.57" transform="translate(-466.26 -712.84)"/><path class="cls-15" d="M1373.17,1781.88l13.47-4.28" transform="translate(-466.26 -712.84)"/><path class="cls-15" d="M1340.05,1792.25l15.2-4.74" transform="translate(-466.26 -712.84)"/><path class="cls-15" d="M1309.6,1801.65l11.66-3.58" transform="translate(-466.26 -712.84)"/><path class="cls-15" d="M1280,1810.7l10.77-3.28" transform="translate(-466.26 -712.84)"/></svg>